<svg width="834" height="136" viewBox="0 0 834 136" fill="none" xmlns="http://www.w3.org/2000/svg">
<path d="M98.2346 133.043H123.976L71.3573 1.15894H53.5653L0.75708 133.043H26.4987L36.5304 105.796H88.2029L98.2346 133.043ZM44.6693 84.0362L62.4613 35.9749L80.2533 84.0362H44.6693Z" fill="#4C6EE8"/>
<path d="M187.797 37.8671C177.197 37.8671 166.787 42.2191 160.919 49.2202V1.15894H138.206V133.043H160.919V123.772C167.355 131.719 177.765 134.936 187.797 134.936C213.16 134.936 227.166 114.311 227.166 86.3068C227.166 55.8428 210.699 37.8671 187.797 37.8671ZM182.308 113.933C165.84 113.933 158.837 102.012 158.837 86.496C158.837 70.9802 165.84 58.4918 182.118 58.4918C197.26 58.4918 204.453 69.088 204.453 86.496C204.453 103.715 197.45 113.933 182.308 113.933Z" fill="#4C6EE8"/>
<path d="M284.941 134.936C313.711 134.936 331.692 112.608 331.692 86.3068C331.692 59.8163 313.711 37.8671 284.941 37.8671C255.982 37.8671 238.19 59.8163 238.19 86.3068C238.19 112.608 255.982 134.936 284.941 134.936ZM284.941 115.068C267.717 115.068 260.903 101.444 260.903 86.3068C260.903 70.9802 267.717 57.735 284.941 57.735C302.165 57.735 308.979 70.9802 308.979 86.3068C308.979 101.444 302.165 115.068 284.941 115.068Z" fill="#4C6EE8"/>
<path d="M408.338 39.7593V75.1429C408.338 91.7941 408.338 115.068 387.139 115.068C369.914 115.068 369.914 98.7951 369.914 92.3617V39.7593H347.201V98.0382C347.201 117.906 357.044 134.936 380.514 134.936C391.492 134.936 401.713 131.151 408.338 122.258V133.043H431.051V39.7593H408.338Z" fill="#4C6EE8"/>
<path d="M507.385 57.7349V39.7593H484.104V1.15894L461.391 17.9993V39.7593H446.249V57.7349H461.391V106.931C461.391 126.799 474.641 134.936 490.351 134.936C496.029 134.936 501.707 133.99 507.385 132.097V113.933C503.221 115.257 499.247 116.014 496.029 116.014C488.647 116.014 484.104 112.608 484.104 105.229V57.7349H507.385Z" fill="#4C6EE8"/>
<path d="M530.143 133.043H582.005C608.882 133.043 624.971 118.663 624.971 94.4431C624.971 77.9812 617.589 67.0066 603.393 61.8977C612.668 56.5996 617.967 46.7603 617.967 34.4612C617.967 13.6473 602.447 1.15894 576.137 1.15894H530.143V133.043ZM553.803 53.5722V22.9189H576.137C587.683 22.9189 594.308 28.5955 594.308 38.624C594.308 48.4633 588.062 53.5722 576.137 53.5722H553.803ZM553.803 111.283V75.3322H580.112C593.929 75.3322 601.311 81.3871 601.311 92.5509C601.311 104.093 593.361 111.283 580.112 111.283H553.803Z" fill="#4C6EE8"/>
<path d="M645.205 22.1621H669.054V1.15894H645.205V22.1621ZM645.773 133.043H668.486V39.7593H645.773V133.043Z" fill="#4C6EE8"/>
<path d="M744.721 57.7349V39.7593H721.44V1.15894L698.726 17.9993V39.7593H683.584V57.7349H698.726V106.931C698.726 126.799 711.976 134.936 727.686 134.936C733.364 134.936 739.042 133.99 744.721 132.097V113.933C740.557 115.257 736.582 116.014 733.364 116.014C725.982 116.014 721.44 112.608 721.44 105.229V57.7349H744.721Z" fill="#4C6EE8"/>
<path d="M795.997 134.936C813.599 134.936 832.338 125.475 832.338 103.715C832.338 69.6557 783.505 77.9812 783.505 63.7899C783.505 59.4379 788.047 55.8428 795.429 55.8428C805.65 55.8428 810.76 61.8977 813.978 67.7635L831.581 58.1134C824.578 45.4358 812.275 37.8671 796.186 37.8671C778.205 37.8671 761.927 47.1388 761.927 65.1144C761.927 99.7412 810.003 89.3343 810.003 105.039C810.003 109.959 805.461 116.014 794.861 116.014C782.369 116.014 777.448 107.499 774.987 100.687L756.817 108.824C761.359 123.015 776.312 134.936 795.997 134.936Z" fill="#4C6EE8"/>
</svg>
